<?xml version="1.0" encoding="UTF-8"?>
<svg xmlns="http://www.w3.org/2000/svg" viewBox="0 0 93 53.63" width="93px" height="53.63px" version="1.2" baseProfile="tiny">
  <defs>
    <style type="text/css">
      .cls-1, .cls-2 {
        stroke-width: 0px;
      }
      .cls-1, .cls-3 {
        mix-blend-mode: multiply;
        opacity: .5;
      }
      .cls-4 {
        isolation: isolate;
      }
    </style>
  </defs>
  <g class="cls-4">
    <g id="Layer_1" data-name="Layer 1">
      <g>
        <path class="cls-2" d="M74.31,18.7c-5.03.35-9.95,1.54-14.46,3.54-6.46,2.86-11.97,7.33-15.93,12.92-4.66,6.56-8.8,10.17-17.33,10.43l.25,7.97c11.71-.36,17.9-5.77,23.59-13.79,5.39-7.6,14.09-12.29,23.89-13.08v-7.99Z"/>
        <path class="cls-2" d="M92.99,7.02c-.03,1.61-1,9.92-18.23,11.65,0,0-8.96.41-14.99,5.25v5.9c2.72-1.47,6.82-2.71,12.99-3,0,0,20.73-.87,20.23-19.8Z"/>
        <path class="cls-2" d="M61.52,17.79c3.2-12.24,26.27-2.43,30.48-17.79,0,0,2.15,12.02-16.87,14.51,0,0-8.8.88-13.62,3.28Z"/>
      </g>
      <path class="cls-2" d="M35.59,43.4c-2.64,1.42-5.65,2.22-8.85,2.22-10.35,0-18.77-8.42-18.77-18.77S16.39,8.08,26.74,8.08c1.96,0,3.84.3,5.62.86l3.37-7.28C32.92.65,29.89.1,26.74.1,12,.1,0,12.1,0,26.85s12,26.74,26.74,26.74c5.41,0,10.45-1.62,14.66-4.39l-5.81-5.81Z"/>
      <g class="cls-3">
        <path class="cls-2" d="M59.85,22.24c-.92.41-2.7,1.32-2.7,1.32l3.28,7.28s5.08-3.31,13.2-4.08v-8c-4.79.4-9.47,1.57-13.78,3.48Z"/>
      </g>
      <polygon class="cls-2" points="50.73 0.08 43.94 0.08 22.44 48.34 29.72 51.59 47.37 11.97 66.28 53.63 75.04 53.63 50.73 0.08"/>
      <g class="cls-3">
        <path class="cls-2" d="M45.42,33.19l3.68,8.39c.45-.59.89-1.18,1.33-1.8,3.17-4.46,7.47-7.92,12.48-10.18l-3.29-7.24c-5.58,2.51-10.44,6.23-14.19,10.83Z"/>
      </g>
      <path class="cls-2" d="M66.28,53.63h8.76l-9.53-21.01c-2.52,1.02-4.85,2.37-6.93,4.04l7.7,16.97Z"/>
      <path class="cls-2" d="M58.3,18.74c-2.2.98-4.31,2.13-6.29,3.43l6.58,14.5c2.08-1.66,4.4-3.02,6.93-4.04l-6.45-14.21c-.25.11-.51.21-.76.32Z"/>
      <path class="cls-1" d="M29.72,51.59l8.58-19.4c-.42.31-.84.59-1.27.84l-.27.15c-.56.3-1.15.57-1.75.8-1.58.57-3.4.88-5.56.95h-.29c-.26,0-.53-.02-.79-.04l-5.93,13.46,7.28,3.25Z"/>
      <polygon class="cls-2" points="50.73 0.08 43.94 0.08 36.38 17.05 42.42 23.08 47.37 11.97 66.28 53.63 75.04 53.63 50.73 0.08"/>
      <path class="cls-2" d="M35.59,43.4c-2.64,1.42-5.65,2.22-8.85,2.22-10.35,0-18.77-8.42-18.77-18.77S16.39,8.08,26.74,8.08c1.96,0,3.84.3,5.62.86l3.37-7.28C32.92.65,29.89.1,26.74.1,12,.1,0,12.1,0,26.85s12,26.74,26.74,26.74c5.41,0,10.45-1.62,14.66-4.39l-5.81-5.81Z"/>
    </g>
  </g>
</svg>
